<svg width="30" height="30" viewBox="0 0 30 30" fill="none" xmlns="http://www.w3.org/2000/svg">
<path d="M0 30L2.56944 19.6528L18.3333 3.88892L26.1111 11.6667L10.3472 27.4306L0 30ZM4.375 20.625L2.70833 27.2917L9.375 25.625L23.4028 11.5973L18.4028 6.59724L4.375 20.625Z" fill="white"/>
<path d="M8.68045 26.8055C7.98601 24.0972 5.90267 22.0139 3.19434 21.3194L3.68046 19.375C7.08323 20.2083 9.72212 22.8472 10.5555 26.25L8.68045 26.8055Z" fill="white"/>
<path d="M8.47214 22.9861L7.08325 21.5277L20.9027 7.70831L22.2916 9.0972L8.47214 22.9861Z" fill="white"/>
<path d="M1.38892 28.6111L4.44447 27.8472C4.16669 26.7361 3.26391 25.8333 2.1528 25.5555L1.38892 28.6111Z" fill="white"/>
<path d="M26.8749 10.9028L19.0972 3.125L22.2222 0L22.7083 0.0694487C26.4583 0.55556 29.4444 3.54167 29.9305 7.29166L29.9999 7.77778L26.8749 10.9028ZM21.9444 3.125L26.9444 8.12501L27.9166 7.15279C27.3611 4.65279 25.4166 2.70834 22.9166 2.15278L21.9444 3.125Z" fill="white"/>
</svg>
