<svg width="21" height="27" viewBox="0 0 21 27" fill="none" xmlns="http://www.w3.org/2000/svg">
<path d="M16.0701 26.6508H4.13467C3.43605 26.6491 2.76652 26.3623 2.27252 25.8534C1.77852 25.3444 1.50024 24.6546 1.49854 23.9348V4.78058C1.49854 4.5164 1.60039 4.26304 1.7817 4.07623C1.96301 3.88943 2.20892 3.78448 2.46533 3.78448H17.7407C17.9971 3.78448 18.243 3.88943 18.4244 4.07623C18.6057 4.26304 18.7075 4.5164 18.7075 4.78058V23.9348C18.7058 24.6548 18.4274 25.3448 17.9331 25.8538C17.4388 26.3628 16.7689 26.6494 16.0701 26.6508ZM3.43213 5.77667V23.9348C3.4323 24.1267 3.50637 24.3107 3.63809 24.4464C3.7698 24.5821 3.9484 24.6584 4.13467 24.6586H16.0701C16.2565 24.6586 16.4352 24.5824 16.5671 24.4467C16.699 24.3109 16.7731 24.1268 16.7733 23.9348V5.77667H3.43213Z" fill="white"/>
<path d="M14.1628 5.77668H6.04175C5.78534 5.77668 5.53943 5.67173 5.35812 5.48493C5.17681 5.29813 5.07495 5.04476 5.07495 4.78058V2.97035C5.07597 2.18277 5.38013 1.42777 5.92072 0.870926C6.4613 0.314086 7.19417 0.000878483 7.95858 0H12.246C13.0104 0.000878483 13.7433 0.314086 14.2839 0.870926C14.8245 1.42777 15.1286 2.18277 15.1296 2.97035V4.78058C15.1296 5.04476 15.0278 5.29813 14.8465 5.48493C14.6652 5.67173 14.4193 5.77668 14.1628 5.77668ZM7.00854 3.78449H13.196V2.97035C13.1957 2.71092 13.0955 2.46222 12.9174 2.27884C12.7393 2.09545 12.4978 1.99236 12.246 1.99219H7.95858C7.70689 1.99254 7.46561 2.09571 7.28764 2.27907C7.10967 2.46244 7.00953 2.71103 7.00919 2.97035L7.00854 3.78449Z" fill="white"/>
<path d="M10.1023 22.8378C9.84588 22.8378 9.59998 22.7328 9.41867 22.546C9.23736 22.3592 9.1355 22.1059 9.1355 21.8417V8.5943C9.1355 8.33012 9.23736 8.07676 9.41867 7.88995C9.59998 7.70315 9.84588 7.59821 10.1023 7.59821C10.3587 7.59821 10.6046 7.70315 10.7859 7.88995C10.9672 8.07676 11.0691 8.33012 11.0691 8.5943V21.8417C11.0691 22.1059 10.9672 22.3592 10.7859 22.546C10.6046 22.7328 10.3587 22.8378 10.1023 22.8378Z" fill="white"/>
<path d="M6.61157 22.8378C6.35516 22.8378 6.10925 22.7328 5.92794 22.546C5.74663 22.3592 5.64478 22.1059 5.64478 21.8417V8.5943C5.64478 8.33012 5.74663 8.07676 5.92794 7.88995C6.10925 7.70315 6.35516 7.59821 6.61157 7.59821C6.86798 7.59821 7.11389 7.70315 7.2952 7.88995C7.47651 8.07676 7.57837 8.33012 7.57837 8.5943V21.8417C7.57837 22.1059 7.47651 22.3592 7.2952 22.546C7.11389 22.7328 6.86798 22.8378 6.61157 22.8378Z" fill="white"/>
<path d="M13.5938 22.8378C13.3373 22.8378 13.0914 22.7328 12.9101 22.546C12.7288 22.3592 12.627 22.1059 12.627 21.8417V8.5943C12.627 8.33012 12.7288 8.07676 12.9101 7.88995C13.0914 7.70315 13.3373 7.59821 13.5938 7.59821C13.8502 7.59821 14.0961 7.70315 14.2774 7.88995C14.4587 8.07676 14.5605 8.33012 14.5605 8.5943V21.8417C14.5605 22.1059 14.4587 22.3592 14.2774 22.546C14.0961 22.7328 13.8502 22.8378 13.5938 22.8378Z" fill="white"/>
<path d="M19.2386 5.77667H0.966797C0.710386 5.77667 0.464478 5.67172 0.283168 5.48492C0.101859 5.29812 0 5.04476 0 4.78058C0 4.5164 0.101859 4.26304 0.283168 4.07623C0.464478 3.88943 0.710386 3.78448 0.966797 3.78448H19.2386C19.495 3.78448 19.7409 3.88943 19.9222 4.07623C20.1035 4.26304 20.2054 4.5164 20.2054 4.78058C20.2054 5.04476 20.1035 5.29812 19.9222 5.48492C19.7409 5.67172 19.495 5.77667 19.2386 5.77667Z" fill="white"/>
</svg>
